<?xml version="1.0" standalone="no"?>
<!DOCTYPE svg PUBLIC "-//W3C//DTD SVG 20010904//EN"
 "http://www.w3.org/TR/2001/REC-SVG-20010904/DTD/svg10.dtd">
<svg version="1.0" xmlns="http://www.w3.org/2000/svg"
 width="225.000000pt" height="225.000000pt" viewBox="0 0 225.000000 225.000000"
 preserveAspectRatio="xMidYMid meet">
<metadata>
Created by potrace 1.14, written by Peter Selinger 2001-2017
</metadata>
<g transform="translate(0.000000,225.000000) scale(0.100000,-0.100000)"
fill="#000000" stroke="none">
<path d="M685 1961 c-46 -28 -110 -102 -176 -204 -185 -285 -339 -691 -339
-891 0 -134 65 -212 160 -191 44 10 123 86 174 168 56 90 103 198 154 358 59
184 66 220 53 277 -20 83 -41 255 -41 334 0 68 2 79 21 88 66 36 169 -71 331
-340 41 -69 85 -143 96 -166 l21 -41 -40 -114 c-57 -162 -81 -270 -82 -370 0
-73 3 -93 24 -129 68 -124 207 -73 318 118 56 97 133 289 173 435 18 66 33
115 35 111 1 -5 18 -64 38 -132 68 -240 166 -444 255 -533 89 -89 182 -89 228
1 65 129 -4 429 -180 780 -153 305 -286 472 -361 452 -64 -17 -206 -214 -328
-457 l-75 -151 -66 135 c-126 258 -265 450 -343 475 -12 3 -32 -2 -50 -13z"/>
</g>
</svg>
